<?xml version="1.0" encoding="UTF-8" standalone="no"?>
<!DOCTYPE svg PUBLIC "-//W3C//DTD SVG 1.1//EN" "http://www.w3.org/Graphics/SVG/1.1/DTD/svg11.dtd">
<svg xmlns="http://www.w3.org/2000/svg" version="1.1" viewBox="0.00 0.00 1024.00 1024.00">
<g stroke-width="2.00" fill="none" stroke-linecap="butt">
<path stroke="#e59cac" vector-effect="non-scaling-stroke" d="
  M 597.71 287.92
  L 583.53 302.28"
/>
<path stroke="#d194b8" vector-effect="non-scaling-stroke" d="
  M 583.53 302.28
  L 563.30 322.50"
/>
<path stroke="#c294bb" vector-effect="non-scaling-stroke" d="
  M 563.30 322.50
  L 546.66 339.16"
/>
<path stroke="#b994bb" vector-effect="non-scaling-stroke" d="
  M 546.66 339.16
  L 528.03 357.58"
/>
<path stroke="#ab94ba" vector-effect="non-scaling-stroke" d="
  M 528.03 357.58
  Q 527.23 358.16 526.37 358.03"
/>
<path stroke="#a398bc" vector-effect="non-scaling-stroke" d="
  M 526.37 358.03
  Q 512.71 353.54 498.02 357.75
  A 1.72 1.72 0.0 0 1 496.35 357.32
  L 458.73 319.88"
/>
<path stroke="#94a1c4" vector-effect="non-scaling-stroke" d="
  M 458.73 319.88
  L 447.30 308.55"
/>
<path stroke="#8da6c6" vector-effect="non-scaling-stroke" d="
  M 447.30 308.55
  L 437.29 298.51"
/>
<path stroke="#8eadcd" vector-effect="non-scaling-stroke" d="
  M 437.29 298.51
  L 435.20 296.47"
/>
<path stroke="#84b7d2" vector-effect="non-scaling-stroke" d="
  M 435.20 296.47
  L 427.68 288.85"
/>
<path stroke="#83c0d1" vector-effect="non-scaling-stroke" d="
  M 427.68 288.85
  Q 422.69 283.19 420.67 282.29
  C 412.77 278.76 404.44 283.52 402.99 292.01
  C 402.12 297.12 405.14 299.75 408.89 303.62
  Q 411.27 306.06 413.66 308.32"
/>
<path stroke="#84b7d2" vector-effect="non-scaling-stroke" d="
  M 413.66 308.32
  L 424.46 319.23"
/>
<path stroke="#8eadcd" vector-effect="non-scaling-stroke" d="
  M 424.46 319.23
  L 430.95 325.82"
/>
<path stroke="#8da6c6" vector-effect="non-scaling-stroke" d="
  M 430.95 325.82
  L 449.03 344.05"
/>
<path stroke="#a398bc" vector-effect="non-scaling-stroke" d="
  M 449.03 344.05
  L 474.60 369.48
  A 1.16 1.16 0.0 0 1 474.59 371.13
  Q 466.54 379.01 461.74 389.75"
/>
<path stroke="#94a1c4" vector-effect="non-scaling-stroke" d="
  M 461.74 389.75
  L 400.97 389.88"
/>
<path stroke="#8da6c6" vector-effect="non-scaling-stroke" d="
  M 400.97 389.88
  Q 385.32 389.74 369.50 390.01
  Q 352.19 390.29 335.97 395.85"
/>
<path stroke="#8eadcd" vector-effect="non-scaling-stroke" d="
  M 335.97 395.85
  C 307.77 405.56 286.66 427.17 275.27 454.49"
/>
<path stroke="#8da6c6" vector-effect="non-scaling-stroke" d="
  M 275.27 454.49
  Q 266.40 476.61 267.56 500.68"
/>
<path stroke="#94a1c4" vector-effect="non-scaling-stroke" d="
  M 267.56 500.68
  L 267.53 574.04"
/>
<path stroke="#ab94ba" vector-effect="non-scaling-stroke" d="
  M 267.53 574.04
  Q 267.59 600.01 267.57 625.98
  Q 267.55 647.83 268.80 655.45
  C 272.84 680.22 284.52 702.28 303.72 718.78
  Q 329.60 741.01 366.29 743.17"
/>
<path stroke="#b994bb" vector-effect="non-scaling-stroke" d="
  M 366.29 743.17
  L 430.09 743.17"
/>
<path stroke="#c294bb" vector-effect="non-scaling-stroke" d="
  M 430.09 743.17
  L 482.62 743.19"
/>
<path stroke="#d194b8" vector-effect="non-scaling-stroke" d="
  M 482.62 743.19
  L 544.01 743.18"
/>
<path stroke="#e59cac" vector-effect="non-scaling-stroke" d="
  M 544.01 743.18
  L 582.77 743.15"
/>
<path stroke="#e99fa7" vector-effect="non-scaling-stroke" d="
  M 582.77 743.15
  L 619.07 743.18"
/>
<path stroke="#eda4a0" vector-effect="non-scaling-stroke" d="
  M 619.07 743.18
  L 634.09 743.16"
/>
<path stroke="#efb19c" vector-effect="non-scaling-stroke" d="
  M 634.09 743.16
  C 647.01 743.27 660.36 743.92 673.09 741.36"
/>
<path stroke="#efb99b" vector-effect="non-scaling-stroke" d="
  M 673.09 741.36
  Q 690.17 738.27 704.96 729.79"
/>
<path stroke="#eec598" vector-effect="non-scaling-stroke" d="
  M 704.96 729.79
  C 737.66 711.76 756.31 677.10 756.45 640.11
  Q 756.48 632.97 756.36 625.78"
/>
<path stroke="#efb99b" vector-effect="non-scaling-stroke" d="
  M 756.36 625.78
  L 756.30 606.05"
/>
<path stroke="#efb19c" vector-effect="non-scaling-stroke" d="
  M 756.30 606.05
  L 756.40 576.90"
/>
<path stroke="#eda4a0" vector-effect="non-scaling-stroke" d="
  M 756.40 576.90
  L 756.44 560.96"
/>
<path stroke="#e99fa7" vector-effect="non-scaling-stroke" d="
  M 756.44 560.96
  L 756.42 546.45"
/>
<path stroke="#e59cac" vector-effect="non-scaling-stroke" d="
  M 756.42 546.45
  L 756.38 502.46"
/>
<path stroke="#d194b8" vector-effect="non-scaling-stroke" d="
  M 756.38 502.46
  Q 756.60 489.87 755.95 482.00
  Q 754.78 467.93 748.84 453.78"
/>
<path stroke="#c294bb" vector-effect="non-scaling-stroke" d="
  M 748.84 453.78
  C 742.66 437.43 730.62 422.44 717.06 411.71"
/>
<path stroke="#b994bb" vector-effect="non-scaling-stroke" d="
  M 717.06 411.71
  Q 698.19 396.78 674.74 392.11"
/>
<path stroke="#ab94ba" vector-effect="non-scaling-stroke" d="
  M 674.74 392.11
  Q 662.77 389.81 655.72 389.82
  Q 609.61 389.88 563.26 389.80
  A 1.23 1.23 0.0 0 1 562.11 389.00
  Q 558.20 378.49 549.56 370.33"
/>
<path stroke="#b994bb" vector-effect="non-scaling-stroke" d="
  M 549.56 370.33
  L 563.13 356.63"
/>
<path stroke="#c294bb" vector-effect="non-scaling-stroke" d="
  M 563.13 356.63
  L 574.82 344.72"
/>
<path stroke="#d194b8" vector-effect="non-scaling-stroke" d="
  M 574.82 344.72
  L 597.57 321.51"
/>
<path stroke="#e59cac" vector-effect="non-scaling-stroke" d="
  M 597.57 321.51
  L 608.07 311.06"
/>
<path stroke="#efb19c" vector-effect="non-scaling-stroke" d="
  M 608.07 311.06
  Q 613.07 306.34 617.76 301.37
  Q 620.75 298.20 621.29 295.99
  C 622.79 289.89 618.99 284.14 613.26 282.00
  C 606.40 279.44 601.83 282.53 597.71 287.92"
/>
<path stroke="#ef6865" vector-effect="non-scaling-stroke" d="
  M 608.07 311.06
  C 600.93 305.07 598.68 296.86 597.71 287.92"
/>
<path stroke="#d14c81" vector-effect="non-scaling-stroke" d="
  M 597.57 321.51
  Q 592.69 322.79 589.14 319.05
  Q 586.44 316.20 583.89 313.08
  Q 579.83 308.08 583.53 302.28"
/>
<path stroke="#ae4490" vector-effect="non-scaling-stroke" d="
  M 574.82 344.72
  Q 571.12 339.77 567.44 334.83
  Q 563.29 329.29 563.30 322.50"
/>
<path stroke="#954493" vector-effect="non-scaling-stroke" d="
  M 563.13 356.63
  Q 553.32 349.45 546.66 339.16"
/>
<path stroke="#7f4492" vector-effect="non-scaling-stroke" d="
  M 549.56 370.33
  Q 544.87 365.49 539.72 360.60
  Q 534.65 355.79 528.03 357.58"
/>
<path stroke="#7f4492" vector-effect="non-scaling-stroke" d="
  M 674.74 392.11
  C 665.87 405.09 657.38 417.49 644.13 425.42
  A 1.65 1.64 -61.9 0 1 643.35 425.66
  L 638.21 425.88"
/>
<path stroke="#b7a0c6" vector-effect="non-scaling-stroke" d="
  M 638.21 425.88
  L 544.02 425.89"
/>
<path stroke="#954493" vector-effect="non-scaling-stroke" d="
  M 717.06 411.71
  Q 702.61 422.55 690.00 435.31
  A 0.40 0.40 0.0 0 0 690.06 435.93
  Q 696.47 440.14 699.77 446.29"
/>
<path stroke="#c4a0c8" vector-effect="non-scaling-stroke" d="
  M 699.77 446.29
  Q 680.24 426.83 652.50 426.14
  Q 645.36 425.96 638.21 425.88"
/>
<path stroke="#dda0c5" vector-effect="non-scaling-stroke" d="
  M 713.67 466.50
  Q 719.48 479.97 719.47 494.75
  Q 719.46 507.75 719.45 520.71"
/>
<path stroke="#f1a8b8" vector-effect="non-scaling-stroke" d="
  M 719.45 520.71
  L 719.48 574.54"
/>
<path stroke="#f5abb3" vector-effect="non-scaling-stroke" d="
  M 719.48 574.54
  L 719.49 582.59"
/>
<path stroke="#f8b0ad" vector-effect="non-scaling-stroke" d="
  M 719.49 582.59
  L 719.48 596.06"
/>
<path stroke="#fabda9" vector-effect="non-scaling-stroke" d="
  M 719.48 596.06
  Q 719.46 615.76 719.67 635.49
  Q 719.81 648.38 715.82 660.59
  C 706.52 689.13 679.80 707.66 649.79 706.28"
/>
<path stroke="#f8b0ad" vector-effect="non-scaling-stroke" d="
  M 649.79 706.28
  L 629.56 706.26"
/>
<path stroke="#f5abb3" vector-effect="non-scaling-stroke" d="
  M 629.56 706.26
  L 591.76 706.23"
/>
<path stroke="#f1a8b8" vector-effect="non-scaling-stroke" d="
  M 591.76 706.23
  L 546.28 706.21"
/>
<path stroke="#dda0c5" vector-effect="non-scaling-stroke" d="
  M 546.28 706.21
  L 486.23 706.22"
/>
<path stroke="#cda0c7" vector-effect="non-scaling-stroke" d="
  M 486.23 706.22
  L 434.88 706.22"
/>
<path stroke="#c4a0c8" vector-effect="non-scaling-stroke" d="
  M 434.88 706.22
  L 364.07 705.97"
/>
<path stroke="#b7a0c6" vector-effect="non-scaling-stroke" d="
  M 364.07 705.97
  Q 352.41 704.73 342.01 699.49
  C 318.09 687.44 304.59 663.64 304.90 636.95"
/>
<path stroke="#afa4c9" vector-effect="non-scaling-stroke" d="
  M 304.90 636.95
  L 304.90 577.20"
/>
<path stroke="#a0add0" vector-effect="non-scaling-stroke" d="
  M 304.90 577.20
  L 305.36 486.35"
/>
<path stroke="#694893" vector-effect="non-scaling-stroke" d="
  M 526.37 358.03
  Q 533.97 369.36 540.55 380.96
  C 547.59 393.35 551.27 407.45 546.02 420.85
  Q 545.06 423.29 544.02 425.89"
/>
<path stroke="#afa4c9" vector-effect="non-scaling-stroke" d="
  M 544.02 425.89
  L 510.04 425.89"
/>
<path stroke="#52559d" vector-effect="non-scaling-stroke" d="
  M 510.04 425.89
  L 479.06 425.86
  A 0.86 0.85 81.1 0 1 478.25 425.26
  C 474.35 412.78 468.07 401.17 461.74 389.75"
/>
<path stroke="#ae4490" vector-effect="non-scaling-stroke" d="
  M 748.84 453.78
  C 735.92 455.74 724.41 459.16 713.67 466.50"
/>
<path stroke="#cda0c7" vector-effect="non-scaling-stroke" d="
  M 713.67 466.50
  Q 708.56 455.09 699.77 446.29"
/>
<path stroke="#f67159" vector-effect="non-scaling-stroke" d="
  M 756.40 576.90
  Q 741.91 584.46 727.71 592.43
  Q 725.24 593.81 719.48 596.06"
/>
<path stroke="#7f4492" vector-effect="non-scaling-stroke" d="
  M 364.07 705.97
  Q 364.18 724.46 368.99 742.37
  A 0.40 0.40 0.0 0 1 368.66 742.87
  L 366.29 743.17"
/>
<path stroke="#a0add0" vector-effect="non-scaling-stroke" d="
  M 510.04 425.89
  L 371.09 425.98"
/>
<path stroke="#f15f64" vector-effect="non-scaling-stroke" d="
  M 756.44 560.96
  C 756.24 562.75 755.96 564.54 755.64 566.31
  A 0.01 0.00 -64.9 0 1 755.63 566.32
  C 755.65 565.47 755.42 564.41 755.20 563.59
  A 0.37 0.37 0.0 0 0 754.65 563.37
  Q 737.70 574.08 719.49 582.59"
/>
<path stroke="#52559d" vector-effect="non-scaling-stroke" d="
  M 304.90 577.20
  L 304.62 580.89
  A 0.37 0.37 0.0 0 1 304.13 581.21
  Q 286.65 575.58 268.75 578.60"
/>
<path stroke="#5a519a" vector-effect="non-scaling-stroke" d="
  M 268.75 578.60
  L 267.53 574.04"
/>
<path stroke="#d14c81" vector-effect="non-scaling-stroke" d="
  M 546.28 706.21
  L 544.01 743.18"
/>
<path stroke="#f15f64" vector-effect="non-scaling-stroke" d="
  M 629.56 706.26
  C 622.87 717.93 620.32 729.99 619.07 743.18"
/>
<path stroke="#694893" vector-effect="non-scaling-stroke" d="
  M 304.90 636.95
  L 304.63 638.89
  A 0.14 0.13 -55.2 0 1 304.38 638.94
  C 300.72 631.82 296.09 622.21 285.86 626.29
  C 278.40 629.26 275.49 630.87 269.23 631.22
  A 0.48 0.48 0.0 0 1 268.72 630.74
  L 268.75 578.60"
/>
<path stroke="#e9576f" vector-effect="non-scaling-stroke" d="
  M 756.42 546.45
  Q 748.37 552.51 744.81 554.49
  C 734.11 560.43 726.96 565.34 719.48 574.54"
/>
<path stroke="#3c63a7" vector-effect="non-scaling-stroke" d="
  M 400.97 389.88
  Q 399.87 401.19 395.92 410.56
  C 391.37 421.35 381.86 424.25 371.09 425.98"
/>
<path stroke="#99b2d3" vector-effect="non-scaling-stroke" d="
  M 371.09 425.98
  C 336.92 427.45 309.45 452.43 305.36 486.35"
/>
<path stroke="#3c63a7" vector-effect="non-scaling-stroke" d="
  M 305.36 486.35
  Q 299.32 490.86 293.62 495.54
  C 285.56 502.16 277.31 505.72 267.56 500.68"
/>
<path stroke="#366fb0" vector-effect="non-scaling-stroke" d="
  M 275.27 454.49
  Q 288.46 445.31 297.46 438.46
  C 312.88 426.74 325.18 412.05 335.97 395.85"
/>
<path stroke="#e9576f" vector-effect="non-scaling-stroke" d="
  M 591.76 706.23
  L 582.77 743.15"
/>
<path stroke="#d14c81" vector-effect="non-scaling-stroke" d="
  M 756.38 502.46
  L 756.30 505.63"
/>
<path stroke="#cd4692" vector-effect="non-scaling-stroke" d="
  M 756.30 505.63
  C 740.84 505.04 730.79 514.20 720.67 524.51"
/>
<path stroke="#d14c81" vector-effect="non-scaling-stroke" d="
  M 720.67 524.51
  L 719.45 520.71"
/>
<path stroke="#f88654" vector-effect="non-scaling-stroke" d="
  M 756.30 606.05
  Q 742.02 619.27 733.40 636.76
  Q 720.67 662.62 717.80 667.93
  C 708.29 685.60 699.79 698.26 687.41 716.81
  Q 681.80 725.21 673.09 741.36"
/>
<path stroke="#f67159" vector-effect="non-scaling-stroke" d="
  M 634.09 743.16
  Q 636.04 732.66 638.96 722.40
  Q 641.73 712.67 649.79 706.28"
/>
<path stroke="#ae4490" vector-effect="non-scaling-stroke" d="
  M 486.23 706.22
  C 484.13 714.70 485.07 721.72 485.39 729.74
  Q 485.72 737.91 482.62 743.19"
/>
<path stroke="#954493" vector-effect="non-scaling-stroke" d="
  M 434.88 706.22
  Q 429.75 724.44 430.09 743.17"
/>
<path stroke="#3c63a7" vector-effect="non-scaling-stroke" d="
  M 447.30 308.55
  Q 448.17 323.50 444.82 338.28
  A 0.92 0.90 29.7 0 0 445.06 339.12
  L 449.65 343.76"
/>
<path stroke="#4b5a9f" vector-effect="non-scaling-stroke" d="
  M 449.65 343.76
  Q 449.27 343.86 449.03 344.05"
/>
<path stroke="#52559d" vector-effect="non-scaling-stroke" d="
  M 458.73 319.88
  Q 459.53 335.99 458.65 351.94
  A 0.24 0.24 0.0 0 1 458.25 352.10
  L 449.65 343.76"
/>
<path stroke="#e14d85" vector-effect="non-scaling-stroke" d="
  M 756.30 505.63
  L 756.31 519.70
  A 0.44 0.43 -3.8 0 1 755.93 520.13
  L 720.67 524.51"
/>
<path stroke="#f89a50" vector-effect="non-scaling-stroke" d="
  M 756.36 625.78
  L 756.31 637.46
  A 1.23 1.20 -22.4 0 1 755.94 638.33
  C 748.85 645.09 744.40 652.63 739.97 661.67
  Q 733.97 673.91 728.20 686.14
  C 722.46 698.30 712.46 715.11 704.96 729.79"
/>
<path stroke="#366fb0" vector-effect="non-scaling-stroke" d="
  M 437.29 298.51
  L 441.09 304.37
  A 0.85 0.85 0.0 0 1 441.13 305.21
  L 430.95 325.82"
/>
<path stroke="#2c7fbb" vector-effect="non-scaling-stroke" d="
  M 435.20 296.47
  Q 436.61 300.21 435.18 303.22
  Q 432.99 307.83 428.51 315.39
  Q 427.55 317.01 424.46 319.23"
/>
<path stroke="#2293c0" vector-effect="non-scaling-stroke" d="
  M 427.68 288.85
  Q 424.20 301.00 413.66 308.32"
/>
<path stroke="#8fccde" vector-effect="non-scaling-stroke" d="
  M 366.10 463.17
  Q 354.78 466.66 347.99 475.78
  Q 342.39 483.30 341.33 494.25
  C 340.05 507.47 344.96 518.61 350.16 530.78"
/>
<path stroke="#93d0da" vector-effect="non-scaling-stroke" d="
  M 350.16 530.78
  L 356.68 546.02"
/>
<path stroke="#a5d7ce" vector-effect="non-scaling-stroke" d="
  M 356.68 546.02
  L 366.06 569.03"
/>
<path stroke="#b9dbc1" vector-effect="non-scaling-stroke" d="
  M 366.06 569.03
  Q 377.52 597.32 389.19 625.60
  C 394.84 639.29 399.78 651.53 411.58 661.13"
/>
<path stroke="#93d0da" vector-effect="non-scaling-stroke" d="
  M 411.58 661.13
  Q 419.38 667.12 428.48 669.61"
/>
<path stroke="#8fccde" vector-effect="non-scaling-stroke" d="
  M 428.48 669.61
  Q 434.77 671.40 441.16 671.26"
/>
<path stroke="#8fc3de" vector-effect="non-scaling-stroke" d="
  M 441.16 671.26
  Q 450.48 671.70 459.27 668.69"
/>
<path stroke="#99b9d9" vector-effect="non-scaling-stroke" d="
  M 459.27 668.69
  Q 468.43 665.78 475.85 659.62"
/>
<path stroke="#b7a0c6" vector-effect="non-scaling-stroke" d="
  M 475.85 659.62
  Q 483.09 653.81 487.64 645.49"
/>
<path stroke="#c4a0c8" vector-effect="non-scaling-stroke" d="
  M 487.64 645.49
  Q 489.75 641.39 490.53 639.29
  Q 501.23 610.33 512.12 580.63"
/>
<path stroke="#e89dae" vector-effect="non-scaling-stroke" d="
  M 512.12 580.63
  Q 527.57 623.83 533.95 639.79
  Q 538.91 652.18 549.98 660.98"
/>
<path stroke="#f5abb3" vector-effect="non-scaling-stroke" d="
  M 549.98 660.98
  Q 559.64 668.39 571.72 670.60"
/>
<path stroke="#f8b0ad" vector-effect="non-scaling-stroke" d="
  M 571.72 670.60
  L 579.53 671.38"
/>
<path stroke="#fabda9" vector-effect="non-scaling-stroke" d="
  M 579.53 671.38
  Q 587.28 671.79 594.82 669.90"
/>
<path stroke="#fac5a7" vector-effect="non-scaling-stroke" d="
  M 594.82 669.90
  Q 605.56 667.06 614.16 659.59"
/>
<path stroke="#fbd9a4" vector-effect="non-scaling-stroke" d="
  M 614.16 659.59
  Q 624.40 650.30 629.55 638.50
  Q 639.88 614.84 654.27 578.12"
/>
<path stroke="#fad1a5" vector-effect="non-scaling-stroke" d="
  M 654.27 578.12
  L 659.19 566.02"
/>
<path stroke="#fac5a7" vector-effect="non-scaling-stroke" d="
  M 659.19 566.02
  L 662.15 558.74"
/>
<path stroke="#fabda9" vector-effect="non-scaling-stroke" d="
  M 662.15 558.74
  L 665.83 549.90"
/>
<path stroke="#f8b0ad" vector-effect="non-scaling-stroke" d="
  M 665.83 549.90
  L 668.18 544.02"
/>
<path stroke="#f5abb3" vector-effect="non-scaling-stroke" d="
  M 668.18 544.02
  L 670.04 539.42"
/>
<path stroke="#f1a8b8" vector-effect="non-scaling-stroke" d="
  M 670.04 539.42
  L 674.45 528.91"
/>
<path stroke="#dda0c5" vector-effect="non-scaling-stroke" d="
  M 674.45 528.91
  L 681.26 510.94"
/>
<path stroke="#cda0c7" vector-effect="non-scaling-stroke" d="
  M 681.26 510.94
  L 682.64 504.27"
/>
<path stroke="#c4a0c8" vector-effect="non-scaling-stroke" d="
  M 682.64 504.27
  L 683.02 497.68"
/>
<path stroke="#b7a0c6" vector-effect="non-scaling-stroke" d="
  M 683.02 497.68
  L 682.36 489.44"
/>
<path stroke="#a0add0" vector-effect="non-scaling-stroke" d="
  M 682.36 489.44
  Q 677.63 467.86 655.17 462.15"
/>
<path stroke="#b7a0c6" vector-effect="non-scaling-stroke" d="
  M 655.17 462.15
  L 647.84 461.49"
/>
<path stroke="#c4a0c8" vector-effect="non-scaling-stroke" d="
  M 647.84 461.49
  L 642.82 461.74"
/>
<path stroke="#cda0c7" vector-effect="non-scaling-stroke" d="
  M 642.82 461.74
  L 637.99 462.63"
/>
<path stroke="#dda0c5" vector-effect="non-scaling-stroke" d="
  M 637.99 462.63
  Q 629.71 464.63 623.25 469.63"
/>
<path stroke="#f1a8b8" vector-effect="non-scaling-stroke" d="
  M 623.25 469.63
  Q 617.05 474.16 613.78 479.52
  Q 607.03 490.57 602.54 504.75"
/>
<path stroke="#f5abb3" vector-effect="non-scaling-stroke" d="
  M 602.54 504.75
  L 580.24 566.11"
/>
<path stroke="#e89dae" vector-effect="non-scaling-stroke" d="
  M 580.24 566.11
  Q 568.42 534.46 554.54 494.71
  Q 551.62 486.34 546.08 478.66"
/>
<path stroke="#eda2c9" vector-effect="non-scaling-stroke" d="
  M 546.08 478.66
  Q 540.22 471.45 532.96 467.29
  Q 515.81 457.48 497.01 464.64"
/>
<path stroke="#dda0c5" vector-effect="non-scaling-stroke" d="
  M 497.01 464.64
  Q 486.42 468.81 479.41 477.17"
/>
<path stroke="#b7a0c6" vector-effect="non-scaling-stroke" d="
  M 479.41 477.17
  Q 476.42 480.64 474.26 484.52
  Q 469.42 493.20 467.42 502.19"
/>
<path stroke="#afa4c9" vector-effect="non-scaling-stroke" d="
  M 467.42 502.19
  Q 460.75 517.71 455.70 533.52"
/>
<path stroke="#b7a0c6" vector-effect="non-scaling-stroke" d="
  M 455.70 533.52
  Q 450.17 548.75 444.46 563.96
  Q 443.96 565.30 443.31 565.56"
/>
<path stroke="#99b9d9" vector-effect="non-scaling-stroke" d="
  M 443.31 565.56
  Q 443.14 565.27 443.02 565.31"
/>
<path stroke="#8fc3de" vector-effect="non-scaling-stroke" d="
  M 443.02 565.31
  L 431.55 532.95"
/>
<path stroke="#99b9d9" vector-effect="non-scaling-stroke" d="
  M 431.55 532.95
  L 429.27 526.90"
/>
<path stroke="#99b2d3" vector-effect="non-scaling-stroke" d="
  M 429.27 526.90
  L 427.07 520.70"
/>
<path stroke="#a0add0" vector-effect="non-scaling-stroke" d="
  M 427.07 520.70
  L 421.50 505.68"
/>
<path stroke="#afa4c9" vector-effect="non-scaling-stroke" d="
  M 421.50 505.68
  C 416.09 489.91 411.42 474.05 395.76 466.01"
/>
<path stroke="#a0add0" vector-effect="non-scaling-stroke" d="
  M 395.76 466.01
  L 386.09 462.39"
/>
<path stroke="#99b2d3" vector-effect="non-scaling-stroke" d="
  M 386.09 462.39
  L 382.59 461.81"
/>
<path stroke="#99b9d9" vector-effect="non-scaling-stroke" d="
  M 382.59 461.81
  L 380.74 461.60"
/>
<path stroke="#8fc3de" vector-effect="non-scaling-stroke" d="
  M 380.74 461.60
  Q 372.90 460.84 366.10 463.17"
/>
<path stroke="#2c7fbb" vector-effect="non-scaling-stroke" d="
  M 380.74 461.60
  Q 378.95 468.32 378.41 474.18
  C 377.00 489.33 382.54 504.94 394.94 514.30
  Q 401.35 519.15 409.50 522.87
  Q 420.49 527.87 431.55 532.95"
/>
<path stroke="#2c7fbb" vector-effect="non-scaling-stroke" d="
  M 443.02 565.31
  Q 442.69 570.01 440.84 574.57"
/>
<path stroke="#2293c0" vector-effect="non-scaling-stroke" d="
  M 440.84 574.57
  C 431.28 561.76 421.57 552.42 407.46 544.82
  C 396.93 539.15 383.74 533.56 373.07 525.47
  C 352.48 509.86 356.52 483.59 366.10 463.17"
/>
<path stroke="#366fb0" vector-effect="non-scaling-stroke" d="
  M 382.59 461.81
  C 380.67 484.30 383.97 503.57 405.04 515.44
  Q 414.84 520.96 429.27 526.90"
/>
<path stroke="#2c7fbb" vector-effect="non-scaling-stroke" d="
  M 459.27 668.69
  Q 455.45 655.81 454.26 649.99
  Q 447.28 616.10 437.95 582.81"
/>
<path stroke="#2c89bb" vector-effect="non-scaling-stroke" d="
  M 440.84 574.57
  L 437.95 582.81"
/>
<path stroke="#2293c0" vector-effect="non-scaling-stroke" d="
  M 437.95 582.81
  L 435.84 588.07"
/>
<path stroke="#26a0bb" vector-effect="non-scaling-stroke" d="
  M 435.84 588.07
  C 423.08 571.19 409.13 556.72 390.25 546.65
  Q 371.16 536.47 350.16 530.78"
/>
<path stroke="#3c63a7" vector-effect="non-scaling-stroke" d="
  M 386.09 462.39
  Q 385.81 471.14 387.15 480.95
  C 390.38 504.54 407.81 512.72 427.07 520.70"
/>
<path stroke="#2293c0" vector-effect="non-scaling-stroke" d="
  M 441.16 671.26
  Q 440.46 641.95 434.55 613.33
  Q 433.16 606.58 431.73 599.77"
/>
<path stroke="#7f4492" vector-effect="non-scaling-stroke" d="
  M 490.03 517.50
  Q 488.56 529.12 488.51 534.77
  C 488.38 552.03 488.37 564.05 487.66 579.23
  C 486.61 601.68 486.47 621.38 487.64 645.49"
/>
<path stroke="#545da3" vector-effect="non-scaling-stroke" d="
  M 475.85 659.62
  Q 475.28 658.32 475.74 656.99
  A 0.69 0.68 -60.4 0 0 475.54 656.25
  Q 475.25 655.99 475.11 655.61
  Q 463.39 623.62 451.30 589.99
  Q 446.93 577.84 443.31 565.56"
/>
<path stroke="#694893" vector-effect="non-scaling-stroke" d="
  M 455.70 533.52
  Q 456.88 533.88 457.50 532.30
  Q 463.69 516.65 467.42 502.19"
/>
<path stroke="#2697bc" vector-effect="non-scaling-stroke" d="
  M 435.84 588.07
  L 431.73 599.77"
/>
<path stroke="#26a0bb" vector-effect="non-scaling-stroke" d="
  M 431.73 599.77
  L 427.78 611.18"
/>
<path stroke="#3cabab" vector-effect="non-scaling-stroke" d="
  M 427.78 611.18
  Q 421.64 598.47 415.99 589.50
  Q 401.31 566.22 376.45 552.79
  Q 369.21 548.88 356.68 546.02"
/>
<path stroke="#52559d" vector-effect="non-scaling-stroke" d="
  M 395.76 466.01
  C 393.49 487.27 401.61 498.63 421.50 505.68"
/>
<path stroke="#26a0bb" vector-effect="non-scaling-stroke" d="
  M 428.48 669.61
  L 423.32 624.23"
/>
<path stroke="#a54490" vector-effect="non-scaling-stroke" d="
  M 497.75 538.34
  L 490.03 517.50"
/>
<path stroke="#97448f" vector-effect="non-scaling-stroke" d="
  M 490.03 517.50
  Q 484.09 500.58 478.31 483.58
  Q 477.45 481.05 479.42 478.91
  Q 480.06 478.21 479.41 477.17"
/>
<path stroke="#37a7af" vector-effect="non-scaling-stroke" d="
  M 427.78 611.18
  L 423.32 624.23"
/>
<path stroke="#3cabab" vector-effect="non-scaling-stroke" d="
  M 423.32 624.23
  L 416.16 644.88"
/>
<path stroke="#61b693" vector-effect="non-scaling-stroke" d="
  M 416.16 644.88
  C 408.14 615.44 394.74 583.99 366.06 569.03"
/>
<path stroke="#d8427b" vector-effect="non-scaling-stroke" d="
  M 546.08 478.66
  Q 545.52 478.42 545.15 478.43
  A 0.45 0.45 0.0 0 0 544.80 479.15
  Q 546.72 481.77 545.62 484.87
  Q 528.91 531.60 514.83 570.42
  Q 513.51 574.08 511.86 578.67"
/>
<path stroke="#b54595" vector-effect="non-scaling-stroke" d="
  M 511.86 578.67
  L 497.75 538.34"
/>
<path stroke="#cd4692" vector-effect="non-scaling-stroke" d="
  M 497.75 538.34
  Q 495.48 501.60 497.01 464.64"
/>
<path stroke="#e04c65" vector-effect="non-scaling-stroke" d="
  M 580.24 566.11
  Q 579.54 569.15 578.67 572.78
  Q 577.83 576.25 576.71 579.34
  Q 565.57 609.86 554.76 640.51
  C 551.90 648.64 549.99 654.12 549.98 660.98"
/>
<path stroke="#b0407a" vector-effect="non-scaling-stroke" d="
  M 512.12 580.63
  L 511.86 578.67"
/>
<path stroke="#50af9f" vector-effect="non-scaling-stroke" d="
  M 416.16 644.88
  L 411.58 661.13"
/>
<path stroke="#f15f64" vector-effect="non-scaling-stroke" d="
  M 668.18 544.02
  Q 651.62 541.90 635.00 540.70
  C 613.08 539.12 592.26 544.44 585.29 568.24
  Q 583.97 572.76 583.53 574.51
  A 1.62 1.61 42.7 0 0 583.57 575.44
  L 585.74 581.82
  A 1.46 1.43 46.2 0 1 585.73 582.77
  Q 579.29 600.60 575.40 618.23
  C 572.80 630.03 570.72 639.93 569.79 651.57
  Q 569.01 661.27 571.72 670.60"
/>
<path stroke="#f67159" vector-effect="non-scaling-stroke" d="
  M 665.83 549.90
  C 642.37 552.27 618.08 555.72 600.87 573.63
  Q 594.57 580.20 588.86 587.93
  A 0.92 0.92 0.0 0 0 588.73 588.78
  L 591.52 596.76"
/>
<path stroke="#f67958" vector-effect="non-scaling-stroke" d="
  M 591.52 596.76
  L 592.32 599.18"
/>
<path stroke="#f67159" vector-effect="non-scaling-stroke" d="
  M 592.32 599.18
  Q 585.38 629.51 583.36 639.05
  Q 580.12 654.32 581.86 670.61
  A 0.50 0.50 0.0 0 1 581.42 671.16
  L 579.53 671.38"
/>
<path stroke="#e9576f" vector-effect="non-scaling-stroke" d="
  M 670.04 539.42
  Q 655.35 537.45 641.22 534.13
  C 626.36 530.63 614.24 523.63 606.42 511.17
  Q 604.46 508.05 602.54 504.75"
/>
<path stroke="#f89a50" vector-effect="non-scaling-stroke" d="
  M 659.19 566.02
  C 636.59 569.01 617.23 575.17 605.89 596.76
  Q 601.66 604.82 597.96 615.39"
/>
<path stroke="#f88654" vector-effect="non-scaling-stroke" d="
  M 597.96 615.39
  L 592.32 599.18"
/>
<path stroke="#f88654" vector-effect="non-scaling-stroke" d="
  M 603.14 629.61
  Q 597.59 649.63 594.82 669.90"
/>
<path stroke="#f88654" vector-effect="non-scaling-stroke" d="
  M 662.15 558.74
  C 640.97 559.42 620.44 562.57 605.23 578.94
  Q 598.13 586.59 591.52 596.76"
/>
<path stroke="#d14c81" vector-effect="non-scaling-stroke" d="
  M 674.45 528.91
  Q 663.74 527.28 653.51 524.24
  C 638.39 519.75 629.70 508.67 626.57 493.49
  Q 624.17 481.88 623.25 469.63"
/>
<path stroke="#f8ae4c" vector-effect="non-scaling-stroke" d="
  M 654.27 578.12
  C 641.71 582.96 630.88 588.92 623.48 600.47
  Q 617.99 609.02 615.53 621.84
  Q 612.78 636.21 613.01 656.17"
/>
<path stroke="#f89a50" vector-effect="non-scaling-stroke" d="
  M 613.01 656.17
  L 603.14 629.61"
/>
<path stroke="#f89251" vector-effect="non-scaling-stroke" d="
  M 603.14 629.61
  L 597.96 615.39"
/>
<path stroke="#ae4490" vector-effect="non-scaling-stroke" d="
  M 681.26 510.94
  C 665.77 510.41 649.37 508.72 642.83 492.00
  C 639.28 482.92 638.49 472.38 637.99 462.63"
/>
<path stroke="#f9a24f" vector-effect="non-scaling-stroke" d="
  M 614.16 659.59
  L 613.01 656.17"
/>
<path stroke="#7f4492" vector-effect="non-scaling-stroke" d="
  M 647.84 461.49
  Q 648.55 469.00 650.52 477.42
  C 654.58 494.83 667.23 497.50 683.02 497.68"
/>
<path stroke="#954493" vector-effect="non-scaling-stroke" d="
  M 682.64 504.27
  C 668.99 504.41 654.13 503.43 647.74 488.95
  C 644.12 480.75 643.31 470.69 642.82 461.74"
/>
<path stroke="#5a519a" vector-effect="non-scaling-stroke" d="
  M 655.17 462.15
  C 657.34 471.38 660.07 480.64 668.66 485.79
  Q 673.33 488.59 682.36 489.44"
/>
</g>
<path fill="#e5e4e3" d="
  M 1024.00 0.00
  L 1024.00 1024.00
  L 0.00 1024.00
  L 0.00 0.00
  L 1024.00 0.00
  Z
  M 597.71 287.92
  L 583.53 302.28
  L 563.30 322.50
  L 546.66 339.16
  L 528.03 357.58
  Q 527.23 358.16 526.37 358.03
  Q 512.71 353.54 498.02 357.75
  A 1.72 1.72 0.0 0 1 496.35 357.32
  L 458.73 319.88
  L 447.30 308.55
  L 437.29 298.51
  L 435.20 296.47
  L 427.68 288.85
  Q 422.69 283.19 420.67 282.29
  C 412.77 278.76 404.44 283.52 402.99 292.01
  C 402.12 297.12 405.14 299.75 408.89 303.62
  Q 411.27 306.06 413.66 308.32
  L 424.46 319.23
  L 430.95 325.82
  L 449.03 344.05
  L 474.60 369.48
  A 1.16 1.16 0.0 0 1 474.59 371.13
  Q 466.54 379.01 461.74 389.75
  L 400.97 389.88
  Q 385.32 389.74 369.50 390.01
  Q 352.19 390.29 335.97 395.85
  C 307.77 405.56 286.66 427.17 275.27 454.49
  Q 266.40 476.61 267.56 500.68
  L 267.53 574.04
  Q 267.59 600.01 267.57 625.98
  Q 267.55 647.83 268.80 655.45
  C 272.84 680.22 284.52 702.28 303.72 718.78
  Q 329.60 741.01 366.29 743.17
  L 430.09 743.17
  L 482.62 743.19
  L 544.01 743.18
  L 582.77 743.15
  L 619.07 743.18
  L 634.09 743.16
  C 647.01 743.27 660.36 743.92 673.09 741.36
  Q 690.17 738.27 704.96 729.79
  C 737.66 711.76 756.31 677.10 756.45 640.11
  Q 756.48 632.97 756.36 625.78
  L 756.30 606.05
  L 756.40 576.90
  L 756.44 560.96
  L 756.42 546.45
  L 756.38 502.46
  Q 756.60 489.87 755.95 482.00
  Q 754.78 467.93 748.84 453.78
  C 742.66 437.43 730.62 422.44 717.06 411.71
  Q 698.19 396.78 674.74 392.11
  Q 662.77 389.81 655.72 389.82
  Q 609.61 389.88 563.26 389.80
  A 1.23 1.23 0.0 0 1 562.11 389.00
  Q 558.20 378.49 549.56 370.33
  L 563.13 356.63
  L 574.82 344.72
  L 597.57 321.51
  L 608.07 311.06
  Q 613.07 306.34 617.76 301.37
  Q 620.75 298.20 621.29 295.99
  C 622.79 289.89 618.99 284.14 613.26 282.00
  C 606.40 279.44 601.83 282.53 597.71 287.92
  Z"
/>
<path fill="#f87d55" d="
  M 608.07 311.06
  C 600.93 305.07 598.68 296.86 597.71 287.92
  C 601.83 282.53 606.40 279.44 613.26 282.00
  C 618.99 284.14 622.79 289.89 621.29 295.99
  Q 620.75 298.20 617.76 301.37
  Q 613.07 306.34 608.07 311.06
  Z"
/>
<path fill="#219cbf" d="
  M 427.68 288.85
  Q 424.20 301.00 413.66 308.32
  Q 411.27 306.06 408.89 303.62
  C 405.14 299.75 402.12 297.12 402.99 292.01
  C 404.44 283.52 412.77 278.76 420.67 282.29
  Q 422.69 283.19 427.68 288.85
  Z"
/>
<path fill="#e55374" d="
  M 597.71 287.92
  C 598.68 296.86 600.93 305.07 608.07 311.06
  L 597.57 321.51
  Q 592.69 322.79 589.14 319.05
  Q 586.44 316.20 583.89 313.08
  Q 579.83 308.08 583.53 302.28
  L 597.71 287.92
  Z"
/>
<path fill="#2289c0" d="
  M 427.68 288.85
  L 435.20 296.47
  Q 436.61 300.21 435.18 303.22
  Q 432.99 307.83 428.51 315.39
  Q 427.55 317.01 424.46 319.23
  L 413.66 308.32
  Q 424.20 301.00 427.68 288.85
  Z"
/>
<path fill="#3675b6" d="
  M 437.29 298.51
  L 441.09 304.37
  A 0.85 0.85 0.0 0 1 441.13 305.21
  L 430.95 325.82
  L 424.46 319.23
  Q 427.55 317.01 428.51 315.39
  Q 432.99 307.83 435.18 303.22
  Q 436.61 300.21 435.20 296.47
  L 437.29 298.51
  Z"
/>
<path fill="#3568a9" d="
  M 447.30 308.55
  Q 448.17 323.50 444.82 338.28
  A 0.92 0.90 29.7 0 0 445.06 339.12
  L 449.65 343.76
  Q 449.27 343.86 449.03 344.05
  L 430.95 325.82
  L 441.13 305.21
  A 0.85 0.85 0.0 0 0 441.09 304.37
  L 437.29 298.51
  L 447.30 308.55
  Z"
/>
<path fill="#bd448d" d="
  M 583.53 302.28
  Q 579.83 308.08 583.89 313.08
  Q 586.44 316.20 589.14 319.05
  Q 592.69 322.79 597.57 321.51
  L 574.82 344.72
  Q 571.12 339.77 567.44 334.83
  Q 563.29 329.29 563.30 322.50
  L 583.53 302.28
  Z"
/>
<path fill="#435ea4" d="
  M 458.73 319.88
  Q 459.53 335.99 458.65 351.94
  A 0.24 0.24 0.0 0 1 458.25 352.10
  L 449.65 343.76
  L 445.06 339.12
  A 0.92 0.90 29.7 0 1 444.82 338.28
  Q 448.17 323.50 447.30 308.55
  L 458.73 319.88
  Z"
/>
<path fill="#614b95" d="
  M 458.73 319.88
  L 496.35 357.32
  A 1.72 1.72 0.0 0 0 498.02 357.75
  Q 512.71 353.54 526.37 358.03
  Q 533.97 369.36 540.55 380.96
  C 547.59 393.35 551.27 407.45 546.02 420.85
  Q 545.06 423.29 544.02 425.89
  L 510.04 425.89
  L 479.06 425.86
  A 0.86 0.85 81.1 0 1 478.25 425.26
  C 474.35 412.78 468.07 401.17 461.74 389.75
  Q 466.54 379.01 474.59 371.13
  A 1.16 1.16 0.0 0 0 474.60 369.48
  L 449.03 344.05
  Q 449.27 343.86 449.65 343.76
  L 458.25 352.10
  A 0.24 0.24 0.0 0 0 458.65 351.94
  Q 459.53 335.99 458.73 319.88
  Z"
/>
<path fill="#9e4492" d="
  M 563.30 322.50
  Q 563.29 329.29 567.44 334.83
  Q 571.12 339.77 574.82 344.72
  L 563.13 356.63
  Q 553.32 349.45 546.66 339.16
  L 563.30 322.50
  Z"
/>
<path fill="#8c4393" d="
  M 546.66 339.16
  Q 553.32 349.45 563.13 356.63
  L 549.56 370.33
  Q 544.87 365.49 539.72 360.60
  Q 534.65 355.79 528.03 357.58
  L 546.66 339.16
  Z"
/>
<path fill="#714490" d="
  M 549.56 370.33
  Q 558.20 378.49 562.11 389.00
  A 1.23 1.23 0.0 0 0 563.26 389.80
  Q 609.61 389.88 655.72 389.82
  Q 662.77 389.81 674.74 392.11
  C 665.87 405.09 657.38 417.49 644.13 425.42
  A 1.65 1.64 -61.9 0 1 643.35 425.66
  L 638.21 425.88
  L 544.02 425.89
  Q 545.06 423.29 546.02 420.85
  C 551.27 407.45 547.59 393.35 540.55 380.96
  Q 533.97 369.36 526.37 358.03
  Q 527.23 358.16 528.03 357.58
  Q 534.65 355.79 539.72 360.60
  Q 544.87 365.49 549.56 370.33
  Z"
/>
<path fill="#3568a9" d="
  M 400.97 389.88
  Q 399.87 401.19 395.92 410.56
  C 391.37 421.35 381.86 424.25 371.09 425.98
  C 336.92 427.45 309.45 452.43 305.36 486.35
  Q 299.32 490.86 293.62 495.54
  C 285.56 502.16 277.31 505.72 267.56 500.68
  Q 266.40 476.61 275.27 454.49
  Q 288.46 445.31 297.46 438.46
  C 312.88 426.74 325.18 412.05 335.97 395.85
  Q 352.19 390.29 369.50 390.01
  Q 385.32 389.74 400.97 389.88
  Z"
/>
<path fill="#435ea4" d="
  M 461.74 389.75
  C 468.07 401.17 474.35 412.78 478.25 425.26
  A 0.86 0.85 81.1 0 0 479.06 425.86
  L 510.04 425.89
  L 371.09 425.98
  C 381.86 424.25 391.37 421.35 395.92 410.56
  Q 399.87 401.19 400.97 389.88
  L 461.74 389.75
  Z"
/>
<path fill="#8c4393" d="
  M 717.06 411.71
  Q 702.61 422.55 690.00 435.31
  A 0.40 0.40 0.0 0 0 690.06 435.93
  Q 696.47 440.14 699.77 446.29
  Q 680.24 426.83 652.50 426.14
  Q 645.36 425.96 638.21 425.88
  L 643.35 425.66
  A 1.65 1.64 -61.9 0 0 644.13 425.42
  C 657.38 417.49 665.87 405.09 674.74 392.11
  Q 698.19 396.78 717.06 411.71
  Z"
/>
<path fill="#3675b6" d="
  M 335.97 395.85
  C 325.18 412.05 312.88 426.74 297.46 438.46
  Q 288.46 445.31 275.27 454.49
  C 286.66 427.17 307.77 405.56 335.97 395.85
  Z"
/>
<path fill="#9e4492" d="
  M 748.84 453.78
  C 735.92 455.74 724.41 459.16 713.67 466.50
  Q 708.56 455.09 699.77 446.29
  Q 696.47 440.14 690.06 435.93
  A 0.40 0.40 0.0 0 1 690.00 435.31
  Q 702.61 422.55 717.06 411.71
  C 730.62 422.44 742.66 437.43 748.84 453.78
  Z"
/>
<path fill="#fcfcfc" d="
  M 544.02 425.89
  L 638.21 425.88
  Q 645.36 425.96 652.50 426.14
  Q 680.24 426.83 699.77 446.29
  Q 708.56 455.09 713.67 466.50
  Q 719.48 479.97 719.47 494.75
  Q 719.46 507.75 719.45 520.71
  L 719.48 574.54
  L 719.49 582.59
  L 719.48 596.06
  Q 719.46 615.76 719.67 635.49
  Q 719.81 648.38 715.82 660.59
  C 706.52 689.13 679.80 707.66 649.79 706.28
  L 629.56 706.26
  L 591.76 706.23
  L 546.28 706.21
  L 486.23 706.22
  L 434.88 706.22
  L 364.07 705.97
  Q 352.41 704.73 342.01 699.49
  C 318.09 687.44 304.59 663.64 304.90 636.95
  L 304.90 577.20
  L 305.36 486.35
  C 309.45 452.43 336.92 427.45 371.09 425.98
  L 510.04 425.89
  L 544.02 425.89
  Z
  M 366.10 463.17
  Q 354.78 466.66 347.99 475.78
  Q 342.39 483.30 341.33 494.25
  C 340.05 507.47 344.96 518.61 350.16 530.78
  L 356.68 546.02
  L 366.06 569.03
  Q 377.52 597.32 389.19 625.60
  C 394.84 639.29 399.78 651.53 411.58 661.13
  Q 419.38 667.12 428.48 669.61
  Q 434.77 671.40 441.16 671.26
  Q 450.48 671.70 459.27 668.69
  Q 468.43 665.78 475.85 659.62
  Q 483.09 653.81 487.64 645.49
  Q 489.75 641.39 490.53 639.29
  Q 501.23 610.33 512.12 580.63
  Q 527.57 623.83 533.95 639.79
  Q 538.91 652.18 549.98 660.98
  Q 559.64 668.39 571.72 670.60
  L 579.53 671.38
  Q 587.28 671.79 594.82 669.90
  Q 605.56 667.06 614.16 659.59
  Q 624.40 650.30 629.55 638.50
  Q 639.88 614.84 654.27 578.12
  L 659.19 566.02
  L 662.15 558.74
  L 665.83 549.90
  L 668.18 544.02
  L 670.04 539.42
  L 674.45 528.91
  L 681.26 510.94
  L 682.64 504.27
  L 683.02 497.68
  L 682.36 489.44
  Q 677.63 467.86 655.17 462.15
  L 647.84 461.49
  L 642.82 461.74
  L 637.99 462.63
  Q 629.71 464.63 623.25 469.63
  Q 617.05 474.16 613.78 479.52
  Q 607.03 490.57 602.54 504.75
  L 580.24 566.11
  Q 568.42 534.46 554.54 494.71
  Q 551.62 486.34 546.08 478.66
  Q 540.22 471.45 532.96 467.29
  Q 515.81 457.48 497.01 464.64
  Q 486.42 468.81 479.41 477.17
  Q 476.42 480.64 474.26 484.52
  Q 469.42 493.20 467.42 502.19
  Q 460.75 517.71 455.70 533.52
  Q 450.17 548.75 444.46 563.96
  Q 443.96 565.30 443.31 565.56
  Q 443.14 565.27 443.02 565.31
  L 431.55 532.95
  L 429.27 526.90
  L 427.07 520.70
  L 421.50 505.68
  C 416.09 489.91 411.42 474.05 395.76 466.01
  L 386.09 462.39
  L 382.59 461.81
  L 380.74 461.60
  Q 372.90 460.84 366.10 463.17
  Z"
/>
<path fill="#bd448d" d="
  M 748.84 453.78
  Q 754.78 467.93 755.95 482.00
  Q 756.60 489.87 756.38 502.46
  L 756.30 505.63
  C 740.84 505.04 730.79 514.20 720.67 524.51
  L 719.45 520.71
  Q 719.46 507.75 719.47 494.75
  Q 719.48 479.97 713.67 466.50
  C 724.41 459.16 735.92 455.74 748.84 453.78
  Z"
/>
<path fill="#2289c0" d="
  M 380.74 461.60
  Q 378.95 468.32 378.41 474.18
  C 377.00 489.33 382.54 504.94 394.94 514.30
  Q 401.35 519.15 409.50 522.87
  Q 420.49 527.87 431.55 532.95
  L 443.02 565.31
  Q 442.69 570.01 440.84 574.57
  C 431.28 561.76 421.57 552.42 407.46 544.82
  C 396.93 539.15 383.74 533.56 373.07 525.47
  C 352.48 509.86 356.52 483.59 366.10 463.17
  Q 372.90 460.84 380.74 461.60
  Z"
/>
<path fill="#3675b6" d="
  M 382.59 461.81
  C 380.67 484.30 383.97 503.57 405.04 515.44
  Q 414.84 520.96 429.27 526.90
  L 431.55 532.95
  Q 420.49 527.87 409.50 522.87
  Q 401.35 519.15 394.94 514.30
  C 382.54 504.94 377.00 489.33 378.41 474.18
  Q 378.95 468.32 380.74 461.60
  L 382.59 461.81
  Z"
/>
<path fill="#8c4393" d="
  M 647.84 461.49
  Q 648.55 469.00 650.52 477.42
  C 654.58 494.83 667.23 497.50 683.02 497.68
  L 682.64 504.27
  C 668.99 504.41 654.13 503.43 647.74 488.95
  C 644.12 480.75 643.31 470.69 642.82 461.74
  L 647.84 461.49
  Z"
/>
<path fill="#714490" d="
  M 655.17 462.15
  C 657.34 471.38 660.07 480.64 668.66 485.79
  Q 673.33 488.59 682.36 489.44
  L 683.02 497.68
  C 667.23 497.50 654.58 494.83 650.52 477.42
  Q 648.55 469.00 647.84 461.49
  L 655.17 462.15
  Z"
/>
<path fill="#3568a9" d="
  M 386.09 462.39
  Q 385.81 471.14 387.15 480.95
  C 390.38 504.54 407.81 512.72 427.07 520.70
  L 429.27 526.90
  Q 414.84 520.96 405.04 515.44
  C 383.97 503.57 380.67 484.30 382.59 461.81
  L 386.09 462.39
  Z"
/>
<path fill="#dd4796" d="
  M 546.08 478.66
  Q 545.52 478.42 545.15 478.43
  A 0.45 0.45 0.0 0 0 544.80 479.15
  Q 546.72 481.77 545.62 484.87
  Q 528.91 531.60 514.83 570.42
  Q 513.51 574.08 511.86 578.67
  L 497.75 538.34
  Q 495.48 501.60 497.01 464.64
  Q 515.81 457.48 532.96 467.29
  Q 540.22 471.45 546.08 478.66
  Z"
/>
<path fill="#9e4492" d="
  M 642.82 461.74
  C 643.31 470.69 644.12 480.75 647.74 488.95
  C 654.13 503.43 668.99 504.41 682.64 504.27
  L 681.26 510.94
  C 665.77 510.41 649.37 508.72 642.83 492.00
  C 639.28 482.92 638.49 472.38 637.99 462.63
  L 642.82 461.74
  Z"
/>
<path fill="#435ea4" d="
  M 682.36 489.44
  Q 673.33 488.59 668.66 485.79
  C 660.07 480.64 657.34 471.38 655.17 462.15
  Q 677.63 467.86 682.36 489.44
  Z"
/>
<path fill="#435ea4" d="
  M 386.09 462.39
  L 395.76 466.01
  C 393.49 487.27 401.61 498.63 421.50 505.68
  L 427.07 520.70
  C 407.81 512.72 390.38 504.54 387.15 480.95
  Q 385.81 471.14 386.09 462.39
  Z"
/>
<path fill="#bd448d" d="
  M 637.99 462.63
  C 638.49 472.38 639.28 482.92 642.83 492.00
  C 649.37 508.72 665.77 510.41 681.26 510.94
  L 674.45 528.91
  Q 663.74 527.28 653.51 524.24
  C 638.39 519.75 629.70 508.67 626.57 493.49
  Q 624.17 481.88 623.25 469.63
  Q 629.71 464.63 637.99 462.63
  Z"
/>
<path fill="#219cbf" d="
  M 366.10 463.17
  C 356.52 483.59 352.48 509.86 373.07 525.47
  C 383.74 533.56 396.93 539.15 407.46 544.82
  C 421.57 552.42 431.28 561.76 440.84 574.57
  L 437.95 582.81
  L 435.84 588.07
  C 423.08 571.19 409.13 556.72 390.25 546.65
  Q 371.16 536.47 350.16 530.78
  C 344.96 518.61 340.05 507.47 341.33 494.25
  Q 342.39 483.30 347.99 475.78
  Q 354.78 466.66 366.10 463.17
  Z"
/>
<path fill="#bd448d" d="
  M 497.01 464.64
  Q 495.48 501.60 497.75 538.34
  L 490.03 517.50
  Q 484.09 500.58 478.31 483.58
  Q 477.45 481.05 479.42 478.91
  Q 480.06 478.21 479.41 477.17
  Q 486.42 468.81 497.01 464.64
  Z"
/>
<path fill="#614b95" d="
  M 421.50 505.68
  C 401.61 498.63 393.49 487.27 395.76 466.01
  C 411.42 474.05 416.09 489.91 421.50 505.68
  Z"
/>
<path fill="#e55374" d="
  M 623.25 469.63
  Q 624.17 481.88 626.57 493.49
  C 629.70 508.67 638.39 519.75 653.51 524.24
  Q 663.74 527.28 674.45 528.91
  L 670.04 539.42
  Q 655.35 537.45 641.22 534.13
  C 626.36 530.63 614.24 523.63 606.42 511.17
  Q 604.46 508.05 602.54 504.75
  Q 607.03 490.57 613.78 479.52
  Q 617.05 474.16 623.25 469.63
  Z"
/>
<path fill="#714490" d="
  M 479.41 477.17
  Q 480.06 478.21 479.42 478.91
  Q 477.45 481.05 478.31 483.58
  Q 484.09 500.58 490.03 517.50
  Q 488.56 529.12 488.51 534.77
  C 488.38 552.03 488.37 564.05 487.66 579.23
  C 486.61 601.68 486.47 621.38 487.64 645.49
  Q 483.09 653.81 475.85 659.62
  Q 475.28 658.32 475.74 656.99
  A 0.69 0.68 -60.4 0 0 475.54 656.25
  Q 475.25 655.99 475.11 655.61
  Q 463.39 623.62 451.30 589.99
  Q 446.93 577.84 443.31 565.56
  Q 443.96 565.30 444.46 563.96
  Q 450.17 548.75 455.70 533.52
  Q 456.88 533.88 457.50 532.30
  Q 463.69 516.65 467.42 502.19
  Q 469.42 493.20 474.26 484.52
  Q 476.42 480.64 479.41 477.17
  Z"
/>
<path fill="#d33d60" d="
  M 546.08 478.66
  Q 551.62 486.34 554.54 494.71
  Q 568.42 534.46 580.24 566.11
  Q 579.54 569.15 578.67 572.78
  Q 577.83 576.25 576.71 579.34
  Q 565.57 609.86 554.76 640.51
  C 551.90 648.64 549.99 654.12 549.98 660.98
  Q 538.91 652.18 533.95 639.79
  Q 527.57 623.83 512.12 580.63
  L 511.86 578.67
  Q 513.51 574.08 514.83 570.42
  Q 528.91 531.60 545.62 484.87
  Q 546.72 481.77 544.80 479.15
  A 0.45 0.45 0.0 0 1 545.15 478.43
  Q 545.52 478.42 546.08 478.66
  Z"
/>
<path fill="#435ea4" d="
  M 305.36 486.35
  L 304.90 577.20
  L 304.62 580.89
  A 0.37 0.37 0.0 0 1 304.13 581.21
  Q 286.65 575.58 268.75 578.60
  L 267.53 574.04
  L 267.56 500.68
  C 277.31 505.72 285.56 502.16 293.62 495.54
  Q 299.32 490.86 305.36 486.35
  Z"
/>
<path fill="#dd4796" d="
  M 756.30 505.63
  L 756.31 519.70
  A 0.44 0.43 -3.8 0 1 755.93 520.13
  L 720.67 524.51
  C 730.79 514.20 740.84 505.04 756.30 505.63
  Z"
/>
<path fill="#614b95" d="
  M 467.42 502.19
  Q 463.69 516.65 457.50 532.30
  Q 456.88 533.88 455.70 533.52
  Q 460.75 517.71 467.42 502.19
  Z"
/>
<path fill="#e55374" d="
  M 756.38 502.46
  L 756.42 546.45
  Q 748.37 552.51 744.81 554.49
  C 734.11 560.43 726.96 565.34 719.48 574.54
  L 719.45 520.71
  L 720.67 524.51
  L 755.93 520.13
  A 0.44 0.43 -3.8 0 0 756.31 519.70
  L 756.30 505.63
  L 756.38 502.46
  Z"
/>
<path fill="#ed5a6a" d="
  M 670.04 539.42
  L 668.18 544.02
  Q 651.62 541.90 635.00 540.70
  C 613.08 539.12 592.26 544.44 585.29 568.24
  Q 583.97 572.76 583.53 574.51
  A 1.62 1.61 42.7 0 0 583.57 575.44
  L 585.74 581.82
  A 1.46 1.43 46.2 0 1 585.73 582.77
  Q 579.29 600.60 575.40 618.23
  C 572.80 630.03 570.72 639.93 569.79 651.57
  Q 569.01 661.27 571.72 670.60
  Q 559.64 668.39 549.98 660.98
  C 549.99 654.12 551.90 648.64 554.76 640.51
  Q 565.57 609.86 576.71 579.34
  Q 577.83 576.25 578.67 572.78
  Q 579.54 569.15 580.24 566.11
  L 602.54 504.75
  Q 604.46 508.05 606.42 511.17
  C 614.24 523.63 626.36 530.63 641.22 534.13
  Q 655.35 537.45 670.04 539.42
  Z"
/>
<path fill="#8c4393" d="
  M 490.03 517.50
  L 497.75 538.34
  L 511.86 578.67
  L 512.12 580.63
  Q 501.23 610.33 490.53 639.29
  Q 489.75 641.39 487.64 645.49
  C 486.47 621.38 486.61 601.68 487.66 579.23
  C 488.37 564.05 488.38 552.03 488.51 534.77
  Q 488.56 529.12 490.03 517.50
  Z"
/>
<path fill="#2aa4b7" d="
  M 435.84 588.07
  L 431.73 599.77
  L 427.78 611.18
  Q 421.64 598.47 415.99 589.50
  Q 401.31 566.22 376.45 552.79
  Q 369.21 548.88 356.68 546.02
  L 350.16 530.78
  Q 371.16 536.47 390.25 546.65
  C 409.13 556.72 423.08 571.19 435.84 588.07
  Z"
/>
<path fill="#f4645d" d="
  M 668.18 544.02
  L 665.83 549.90
  C 642.37 552.27 618.08 555.72 600.87 573.63
  Q 594.57 580.20 588.86 587.93
  A 0.92 0.92 0.0 0 0 588.73 588.78
  L 591.52 596.76
  L 592.32 599.18
  Q 585.38 629.51 583.36 639.05
  Q 580.12 654.32 581.86 670.61
  A 0.50 0.50 0.0 0 1 581.42 671.16
  L 579.53 671.38
  L 571.72 670.60
  Q 569.01 661.27 569.79 651.57
  C 570.72 639.93 572.80 630.03 575.40 618.23
  Q 579.29 600.60 585.73 582.77
  A 1.46 1.43 46.2 0 0 585.74 581.82
  L 583.57 575.44
  A 1.62 1.61 42.7 0 1 583.53 574.51
  Q 583.97 572.76 585.29 568.24
  C 592.26 544.44 613.08 539.12 635.00 540.70
  Q 651.62 541.90 668.18 544.02
  Z"
/>
<path fill="#4db29f" d="
  M 427.78 611.18
  L 423.32 624.23
  L 416.16 644.88
  C 408.14 615.44 394.74 583.99 366.06 569.03
  L 356.68 546.02
  Q 369.21 548.88 376.45 552.79
  Q 401.31 566.22 415.99 589.50
  Q 421.64 598.47 427.78 611.18
  Z"
/>
<path fill="#ed5a6a" d="
  M 756.42 546.45
  L 756.44 560.96
  C 756.24 562.75 755.96 564.54 755.64 566.31
  A 0.01 0.00 -64.9 0 1 755.63 566.32
  C 755.65 565.47 755.42 564.41 755.20 563.59
  A 0.37 0.37 0.0 0 0 754.65 563.37
  Q 737.70 574.08 719.49 582.59
  L 719.48 574.54
  C 726.96 565.34 734.11 560.43 744.81 554.49
  Q 748.37 552.51 756.42 546.45
  Z"
/>
<path fill="#f87d55" d="
  M 665.83 549.90
  L 662.15 558.74
  C 640.97 559.42 620.44 562.57 605.23 578.94
  Q 598.13 586.59 591.52 596.76
  L 588.73 588.78
  A 0.92 0.92 0.0 0 1 588.86 587.93
  Q 594.57 580.20 600.87 573.63
  C 618.08 555.72 642.37 552.27 665.83 549.90
  Z"
/>
<path fill="#f88e52" d="
  M 662.15 558.74
  L 659.19 566.02
  C 636.59 569.01 617.23 575.17 605.89 596.76
  Q 601.66 604.82 597.96 615.39
  L 592.32 599.18
  L 591.52 596.76
  Q 598.13 586.59 605.23 578.94
  C 620.44 562.57 640.97 559.42 662.15 558.74
  Z"
/>
<path fill="#f4645d" d="
  M 756.44 560.96
  L 756.40 576.90
  Q 741.91 584.46 727.71 592.43
  Q 725.24 593.81 719.48 596.06
  L 719.49 582.59
  Q 737.70 574.08 754.65 563.37
  A 0.37 0.37 0.0 0 1 755.20 563.59
  C 755.42 564.41 755.65 565.47 755.63 566.32
  A 0.01 0.00 -64.9 0 0 755.64 566.31
  C 755.96 564.54 756.24 562.75 756.44 560.96
  Z"
/>
<path fill="#3675b6" d="
  M 443.31 565.56
  Q 446.93 577.84 451.30 589.99
  Q 463.39 623.62 475.11 655.61
  Q 475.25 655.99 475.54 656.25
  A 0.69 0.68 -60.4 0 1 475.74 656.99
  Q 475.28 658.32 475.85 659.62
  Q 468.43 665.78 459.27 668.69
  Q 455.45 655.81 454.26 649.99
  Q 447.28 616.10 437.95 582.81
  L 440.84 574.57
  Q 442.69 570.01 443.02 565.31
  Q 443.14 565.27 443.31 565.56
  Z"
/>
<path fill="#f7a64d" d="
  M 659.19 566.02
  L 654.27 578.12
  C 641.71 582.96 630.88 588.92 623.48 600.47
  Q 617.99 609.02 615.53 621.84
  Q 612.78 636.21 613.01 656.17
  L 603.14 629.61
  L 597.96 615.39
  Q 601.66 604.82 605.89 596.76
  C 617.23 575.17 636.59 569.01 659.19 566.02
  Z"
/>
<path fill="#75ba86" d="
  M 416.16 644.88
  L 411.58 661.13
  C 399.78 651.53 394.84 639.29 389.19 625.60
  Q 377.52 597.32 366.06 569.03
  C 394.74 583.99 408.14 615.44 416.16 644.88
  Z"
/>
<path fill="#614b95" d="
  M 304.90 577.20
  L 304.90 636.95
  L 304.63 638.89
  A 0.14 0.13 -55.2 0 1 304.38 638.94
  C 300.72 631.82 296.09 622.21 285.86 626.29
  C 278.40 629.26 275.49 630.87 269.23 631.22
  A 0.48 0.48 0.0 0 1 268.72 630.74
  L 268.75 578.60
  Q 286.65 575.58 304.13 581.21
  A 0.37 0.37 0.0 0 0 304.62 580.89
  L 304.90 577.20
  Z"
/>
<path fill="#714490" d="
  M 268.75 578.60
  L 268.72 630.74
  A 0.48 0.48 0.0 0 0 269.23 631.22
  C 275.49 630.87 278.40 629.26 285.86 626.29
  C 296.09 622.21 300.72 631.82 304.38 638.94
  A 0.14 0.13 -55.2 0 0 304.63 638.89
  L 304.90 636.95
  C 304.59 663.64 318.09 687.44 342.01 699.49
  Q 352.41 704.73 364.07 705.97
  Q 364.18 724.46 368.99 742.37
  A 0.40 0.40 0.0 0 1 368.66 742.87
  L 366.29 743.17
  Q 329.60 741.01 303.72 718.78
  C 284.52 702.28 272.84 680.22 268.80 655.45
  Q 267.55 647.83 267.57 625.98
  Q 267.59 600.01 267.53 574.04
  L 268.75 578.60
  Z"
/>
<path fill="#f9b64b" d="
  M 654.27 578.12
  Q 639.88 614.84 629.55 638.50
  Q 624.40 650.30 614.16 659.59
  L 613.01 656.17
  Q 612.78 636.21 615.53 621.84
  Q 617.99 609.02 623.48 600.47
  C 630.88 588.92 641.71 582.96 654.27 578.12
  Z"
/>
<path fill="#f87d55" d="
  M 756.40 576.90
  L 756.30 606.05
  Q 742.02 619.27 733.40 636.76
  Q 720.67 662.62 717.80 667.93
  C 708.29 685.60 699.79 698.26 687.41 716.81
  Q 681.80 725.21 673.09 741.36
  C 660.36 743.92 647.01 743.27 634.09 743.16
  Q 636.04 732.66 638.96 722.40
  Q 641.73 712.67 649.79 706.28
  C 679.80 707.66 706.52 689.13 715.82 660.59
  Q 719.81 648.38 719.67 635.49
  Q 719.46 615.76 719.48 596.06
  Q 725.24 593.81 727.71 592.43
  Q 741.91 584.46 756.40 576.90
  Z"
/>
<path fill="#2289c0" d="
  M 437.95 582.81
  Q 447.28 616.10 454.26 649.99
  Q 455.45 655.81 459.27 668.69
  Q 450.48 671.70 441.16 671.26
  Q 440.46 641.95 434.55 613.33
  Q 433.16 606.58 431.73 599.77
  L 435.84 588.07
  L 437.95 582.81
  Z"
/>
<path fill="#f87d55" d="
  M 592.32 599.18
  L 597.96 615.39
  L 603.14 629.61
  Q 597.59 649.63 594.82 669.90
  Q 587.28 671.79 579.53 671.38
  L 581.42 671.16
  A 0.50 0.50 0.0 0 0 581.86 670.61
  Q 580.12 654.32 583.36 639.05
  Q 585.38 629.51 592.32 599.18
  Z"
/>
<path fill="#219cbf" d="
  M 431.73 599.77
  Q 433.16 606.58 434.55 613.33
  Q 440.46 641.95 441.16 671.26
  Q 434.77 671.40 428.48 669.61
  L 423.32 624.23
  L 427.78 611.18
  L 431.73 599.77
  Z"
/>
<path fill="#f88e52" d="
  M 756.30 606.05
  L 756.36 625.78
  L 756.31 637.46
  A 1.23 1.20 -22.4 0 1 755.94 638.33
  C 748.85 645.09 744.40 652.63 739.97 661.67
  Q 733.97 673.91 728.20 686.14
  C 722.46 698.30 712.46 715.11 704.96 729.79
  Q 690.17 738.27 673.09 741.36
  Q 681.80 725.21 687.41 716.81
  C 699.79 698.26 708.29 685.60 717.80 667.93
  Q 720.67 662.62 733.40 636.76
  Q 742.02 619.27 756.30 606.05
  Z"
/>
<path fill="#2aa4b7" d="
  M 428.48 669.61
  Q 419.38 667.12 411.58 661.13
  L 416.16 644.88
  L 423.32 624.23
  L 428.48 669.61
  Z"
/>
<path fill="#f7a64d" d="
  M 756.36 625.78
  Q 756.48 632.97 756.45 640.11
  C 756.31 677.10 737.66 711.76 704.96 729.79
  C 712.46 715.11 722.46 698.30 728.20 686.14
  Q 733.97 673.91 739.97 661.67
  C 744.40 652.63 748.85 645.09 755.94 638.33
  A 1.23 1.20 -22.4 0 0 756.31 637.46
  L 756.36 625.78
  Z"
/>
<path fill="#f88e52" d="
  M 613.01 656.17
  L 614.16 659.59
  Q 605.56 667.06 594.82 669.90
  Q 597.59 649.63 603.14 629.61
  L 613.01 656.17
  Z"
/>
<path fill="#8c4393" d="
  M 434.88 706.22
  Q 429.75 724.44 430.09 743.17
  L 366.29 743.17
  L 368.66 742.87
  A 0.40 0.40 0.0 0 0 368.99 742.37
  Q 364.18 724.46 364.07 705.97
  L 434.88 706.22
  Z"
/>
<path fill="#9e4492" d="
  M 486.23 706.22
  C 484.13 714.70 485.07 721.72 485.39 729.74
  Q 485.72 737.91 482.62 743.19
  L 430.09 743.17
  Q 429.75 724.44 434.88 706.22
  L 486.23 706.22
  Z"
/>
<path fill="#bd448d" d="
  M 546.28 706.21
  L 544.01 743.18
  L 482.62 743.19
  Q 485.72 737.91 485.39 729.74
  C 485.07 721.72 484.13 714.70 486.23 706.22
  L 546.28 706.21
  Z"
/>
<path fill="#e55374" d="
  M 591.76 706.23
  L 582.77 743.15
  L 544.01 743.18
  L 546.28 706.21
  L 591.76 706.23
  Z"
/>
<path fill="#ed5a6a" d="
  M 629.56 706.26
  C 622.87 717.93 620.32 729.99 619.07 743.18
  L 582.77 743.15
  L 591.76 706.23
  L 629.56 706.26
  Z"
/>
<path fill="#f4645d" d="
  M 649.79 706.28
  Q 641.73 712.67 638.96 722.40
  Q 636.04 732.66 634.09 743.16
  L 619.07 743.18
  C 620.32 729.99 622.87 717.93 629.56 706.26
  L 649.79 706.28
  Z"
/>
</svg>
